<svg xmlns="http://www.w3.org/2000/svg" viewBox="0 0 1200 900" role="img" aria-labelledby="title description">
  <title id="title">Abstract gallery artwork</title>
  <desc id="description">A warm abstract composition used when an artwork image is unavailable.</desc>
  <defs>
    <linearGradient id="background" x1="0" y1="0" x2="1" y2="1">
      <stop offset="0" stop-color="#15252d"/>
      <stop offset="1" stop-color="#503624"/>
    </linearGradient>
    <linearGradient id="sun" x1="0" y1="0" x2="1" y2="1">
      <stop offset="0" stop-color="#f2c665"/>
      <stop offset="1" stop-color="#b87335"/>
    </linearGradient>
  </defs>
  <rect width="1200" height="900" fill="url(#background)"/>
  <circle cx="845" cy="255" r="170" fill="url(#sun)" opacity=".95"/>
  <path d="M-40 710C175 520 305 770 503 600s275-8 430-115c105-72 185-84 307-6v421H-40z" fill="#9e6439" opacity=".92"/>
  <path d="M-50 795c218-114 345-8 513-95 162-83 217-213 393-137 123 53 221 4 385-103v540H-50z" fill="#172c31"/>
  <path d="M144 158h365v300H144z" fill="none" stroke="#e5bd68" stroke-width="22" opacity=".88"/>
  <path d="m190 388 122-138 78 82 104-117" fill="none" stroke="#e5bd68" stroke-width="22" stroke-linecap="round" stroke-linejoin="round" opacity=".88"/>
  <text x="78" y="834" fill="#f6e7c8" font-family="Georgia, serif" font-size="42" letter-spacing="8">ART MIND COLLECTION</text>
</svg>
